<svg width="70" height="64" viewBox="0 0 70 64" fill="none" xmlns="http://www.w3.org/2000/svg">
<g clip-path="url(#clip0_16_1001)">
<path d="M15.9859 5.31919H53.3333C54.7362 5.31168 56.1266 5.58246 57.4241 6.11586C58.7217 6.64925 59.9005 7.43467 60.8925 8.42665C61.8845 9.41864 62.6699 10.5975 63.2033 11.895C63.7367 13.1926 64.0075 14.583 64 15.9859V48.0141C64.0075 49.417 63.7367 50.8074 63.2033 52.105C62.6699 53.4025 61.8845 54.5814 60.8925 55.5733C59.9005 56.5653 58.7217 57.3507 57.4241 57.8841C56.1266 58.4175 54.7362 58.6883 53.3333 58.6808H15.9859C14.583 58.6883 13.1926 58.4175 11.895 57.8841C10.5975 57.3507 9.41864 56.5653 8.42665 55.5733C7.43467 54.5814 6.64925 53.4025 6.11586 52.105C5.58246 50.8074 5.31168 49.417 5.31919 48.0141V15.9859C5.31168 14.583 5.58246 13.1926 6.11586 11.895C6.64925 10.5975 7.43467 9.41864 8.42665 8.42665C9.41864 7.43467 10.5975 6.64925 11.895 6.11586C13.1926 5.58246 14.583 5.31168 15.9859 5.31919ZM15.9859 0C11.7484 0.00748001 7.68672 1.6941 4.69041 4.69041C1.6941 7.68672 0.00748001 11.7484 0 15.9859V48.0141C0.00748001 52.2516 1.6941 56.3133 4.69041 59.3096C7.68672 62.3059 11.7484 63.9925 15.9859 64H53.3333C57.5707 63.9925 61.6325 62.3059 64.6288 59.3096C67.6251 56.3133 69.3117 52.2516 69.3192 48.0141V15.9859C69.3117 11.7484 67.6251 7.68672 64.6288 4.69041C61.6325 1.6941 57.5707 0.00748001 53.3333 0H15.9859Z" fill="#FF3562"/>
<path d="M2.65957 15.9859C2.10363 16.1783 1.62149 16.5392 1.28024 17.0184C0.938997 17.4976 0.755615 18.0713 0.755615 18.6596C0.755615 19.2479 0.938997 19.8216 1.28024 20.3008C1.62149 20.78 2.10363 21.1409 2.65957 21.3333H66.6596C67.2155 21.1409 67.6976 20.78 68.0389 20.3008C68.3801 19.8216 68.5635 19.2479 68.5635 18.6596C68.5635 18.0713 68.3801 17.4976 68.0389 17.0184C67.6976 16.5392 67.2155 16.1783 66.6596 15.9859H2.65957Z" fill="#FF3562"/>
<path d="M53.0505 8.00708C52.5028 8.22712 52.0376 8.61294 51.7201 9.11053C51.4026 9.60812 51.2486 10.1926 51.2798 10.782C51.311 11.3714 51.5258 11.9364 51.894 12.3977C52.2623 12.859 52.7656 13.1936 53.3335 13.3546H55.9931C56.6547 13.2864 57.2677 12.9753 57.7133 12.4814C58.1589 11.9876 58.4055 11.346 58.4055 10.6808C58.4055 10.0156 58.1589 9.37407 57.7133 8.8802C57.2677 8.38633 56.6547 8.07524 55.9931 8.00708H53.1637H53.0505Z" fill="#FF3562"/>
<path d="M39.7242 8.00708C39.1759 8.22451 38.7092 8.60789 38.3894 9.10361C38.0697 9.59932 37.9129 10.1826 37.9409 10.7718C37.969 11.361 38.1805 11.9267 38.5459 12.3898C38.9113 12.8529 39.4123 13.1902 39.9789 13.3546H42.6667C43.3284 13.2864 43.9413 12.9753 44.387 12.4814C44.8326 11.9876 45.0792 11.346 45.0792 10.6808C45.0792 10.0156 44.8326 9.37407 44.387 8.8802C43.9413 8.38633 43.3284 8.07524 42.6667 8.00708H39.8374H39.7242Z" fill="#FF3562"/>
<path d="M26.6245 15.9576C25.9089 16.0078 25.2391 16.3279 24.7506 16.8531C24.2621 17.3784 23.9914 18.0696 23.9932 18.7869V61.3121C23.9546 61.6863 23.995 62.0645 24.1119 62.4221C24.2287 62.7797 24.4193 63.1088 24.6713 63.3881C24.9233 63.6674 25.2311 63.8907 25.5749 64.0436C25.9187 64.1964 26.2907 64.2754 26.6669 64.2754C27.0431 64.2754 27.4151 64.1964 27.7589 64.0436C28.1026 63.8907 28.4105 63.6674 28.6625 63.3881C28.9145 63.1088 29.1051 62.7797 29.2219 62.4221C29.3387 62.0645 29.3792 61.6863 29.3406 61.3121V18.6737C29.3127 17.9623 29.0176 17.2875 28.5141 16.7841C28.0107 16.2806 27.3359 15.9855 26.6245 15.9576Z" fill="#FF3562"/>
<path d="M26.3976 37.3475C26.0484 37.3642 25.7058 37.4495 25.3895 37.5987C25.0733 37.7478 24.7894 37.9577 24.5543 38.2165C24.3192 38.4753 24.1373 38.7778 24.0191 39.1069C23.9009 39.436 23.8486 39.7851 23.8654 40.1344C23.8821 40.4837 23.9674 40.8262 24.1165 41.1425C24.2656 41.4588 24.4756 41.7426 24.7344 41.9777C24.9931 42.2129 25.2957 42.3947 25.6248 42.5129C25.9539 42.6312 26.303 42.6834 26.6523 42.6667H66.6593C67.3647 42.6667 68.0412 42.3865 68.5399 41.8877C69.0387 41.3889 69.3189 40.7124 69.3189 40.0071C69.3189 39.3017 69.0387 38.6252 68.5399 38.1265C68.0412 37.6277 67.3647 37.3475 66.6593 37.3475H26.6523C26.5697 37.3195 26.4802 37.3195 26.3976 37.3475Z" fill="#FF3562"/>
<path d="M46.6279 15.9576C45.9123 16.0078 45.2426 16.3279 44.7541 16.8531C44.2656 17.3784 43.9948 18.0696 43.9966 18.7869V40.0919C43.9966 40.8011 44.2783 41.4811 44.7797 41.9826C45.2811 42.484 45.9612 42.7657 46.6703 42.7657C47.3795 42.7657 48.0595 42.484 48.5609 41.9826C49.0624 41.4811 49.3441 40.8011 49.3441 40.0919V18.6737C49.3161 17.9623 49.021 17.2875 48.5175 16.7841C48.0141 16.2806 47.3393 15.9855 46.6279 15.9576Z" fill="#FF3562"/>
<path d="M13.3263 26.6525C12.6646 26.7207 12.0517 27.0318 11.6061 27.5256C11.1605 28.0195 10.9138 28.6611 10.9138 29.3263C10.9138 29.9914 11.1605 30.633 11.6061 31.1269C12.0517 31.6207 12.6646 31.9318 13.3263 32H15.9859C16.5418 31.8076 17.024 31.4467 17.3652 30.9674C17.7065 30.4882 17.8898 29.9146 17.8898 29.3263C17.8898 28.738 17.7065 28.1643 17.3652 27.6851C17.024 27.2059 16.5418 26.8449 15.9859 26.6525H13.3263Z" fill="#FF3562"/>
<path d="M13.0715 37.3475C12.7222 37.3642 12.3796 37.4495 12.0634 37.5987C11.7471 37.7478 11.4633 37.9577 11.2281 38.2165C10.993 38.4753 10.8111 38.7778 10.6929 39.1069C10.5747 39.436 10.5225 39.7851 10.5392 40.1344C10.5559 40.4837 10.6412 40.8262 10.7904 41.1425C10.9395 41.4588 11.1494 41.7426 11.4082 41.9777C11.667 42.2129 11.9695 42.3947 12.2986 42.5129C12.6277 42.6312 12.9768 42.6834 13.3261 42.6667H15.9857C16.6911 42.6667 17.3675 42.3865 17.8663 41.8877C18.3651 41.3889 18.6453 40.7124 18.6453 40.0071C18.6453 39.3017 18.3651 38.6252 17.8663 38.1265C17.3675 37.6277 16.6911 37.3475 15.9857 37.3475H13.3261C13.2435 37.3195 13.154 37.3195 13.0715 37.3475Z" fill="#FF3562"/>
<path d="M13.0715 48.0141C12.3661 48.0479 11.703 48.3605 11.2281 48.8831C10.7532 49.4058 10.5054 50.0957 10.5392 50.8011C10.5729 51.5064 10.8855 52.1695 11.4082 52.6444C11.9308 53.1193 12.6207 53.3671 13.3261 53.3333H15.9857C16.6911 53.3333 17.3675 53.0531 17.8663 52.5543C18.3651 52.0556 18.6453 51.3791 18.6453 50.6737C18.6453 49.9684 18.3651 49.2919 17.8663 48.7931C17.3675 48.2943 16.6911 48.0141 15.9857 48.0141H13.3261C13.2435 47.9861 13.154 47.9861 13.0715 48.0141Z" fill="#FF3562"/>
<path d="M13.0714 8.00708C12.523 8.22451 12.0563 8.60789 11.7366 9.10361C11.4169 9.59932 11.2601 10.1826 11.2881 10.7718C11.3162 11.361 11.5277 11.9267 11.8931 12.3898C12.2585 12.8529 12.7595 13.1902 13.326 13.3546H15.9856C16.6473 13.2864 17.2602 12.9753 17.7058 12.4814C18.1514 11.9876 18.3981 11.346 18.3981 10.6808C18.3981 10.0156 18.1514 9.37407 17.7058 8.8802C17.2602 8.38633 16.6473 8.07524 15.9856 8.00708H13.1563H13.0714Z" fill="#FF3562"/>
</g>
<defs>
<clipPath id="clip0_16_1001">
<rect width="69.3192" height="64" fill="white"/>
</clipPath>
</defs>
</svg>
